# xmcd
#
# Track frame offsets: 
#        150
#        16272
#        29347
#        46477
#        62255
#        81895
#        97380
#        112510
#        131967
#        145182
#        161765
#
# Disc length: 2336 seconds
#
# Revision: 1
# Processed by: cddbd v1.5.2PL0 Copyright (c) Steve Scherf et al.
# Submitted via: ExactAudioCopy v0.99pb4
#
DISCID=8e091e0b
DTITLE=The Mavericks - Music for All Occasions
DYEAR=1995
DGENRE=Pop/Country
TTITLE0=Foolish Heart
TTITLE1=One Step Away
TTITLE2=Here Comes The Rain
TTITLE3=Missing You
TTITLE4=All You Ever Do Is Bring Me Down
TTITLE5=My Secret Flame
TTITLE6=The Writing On The Wall
TTITLE7=Loving You
TTITLE8=If You Only Knew
TTITLE9=I'm Not Gonna Cry For You
TTITLE10=Something Stupid
EXTD=
EXTT0=
EXTT1=
EXTT2=
EXTT3=
EXTT4=
EXTT5=
EXTT6=
EXTT7=
EXTT8=
EXTT9=
EXTT10=
PLAYORDER=
